<?xml version='1.0' encoding='UTF-8'?>
<svg xmlns="http://www.w3.org/2000/svg" viewBox="0 0 278 104.3816" width="278" height="104.3816" version="1.1"><g id="uuid-60cf7e1f-b5b7-4be5-be63-713b9eddd122">
    <path fill="#1d1d1b" d="M 109.2936 38.7052 v 9.3862 h -1.7939 v -9.3862 h 1.7939 Z" id="path2"/>
    <path fill="#1d1d1b" d="M 113.4928 38.7052 l 3.6919 6.396 h 0.0259 v -6.396 h 1.6904 v 9.3862 h -1.7295 l -3.835 -6.6821 h -0.0259 v 6.6821 h -1.6899 v -9.3862 h 1.8721 Z" id="path4"/>
    <path fill="#1d1d1b" d="M 126.9215 38.692 v 1.5083 h -2.457 v 7.8911 h -1.7939 v -7.8911 h -2.457 v -1.5083 h 6.708 Z" id="path6"/>
    <path fill="#1d1d1b" d="M 134.4875 38.7052 v 1.5078 h -4.4199 v 2.2363 h 3.2109 v 1.5078 h -3.2109 v 2.6265 h 4.563 v 1.5078 h -6.3574 v -9.3862 h 6.2144 Z" id="path8"/>
    <path fill="#1d1d1b" d="M 139.9342 38.7052 c 1.8071 0 2.9512 1.001 2.9512 2.834 0 1.1831 -0.6367 2.0542 -1.7158 2.3662 l 2.0669 4.186 h -1.9893 l -1.7681 -3.8223 h -1.5469 v 3.8223 h -1.7939 v -9.3862 h 3.7959 Z M 139.3234 42.8131 c 1.1567 0 1.7681 -0.3247 1.7681 -1.3262 0 -0.9229 -0.585 -1.3257 -1.5083 -1.3257 h -1.6509 v 2.6519 h 1.3911 Z" id="path10"/>
    <path fill="#1d1d1b" d="M 147.9421 38.7052 c 2.6392 0 4.1865 1.6118 4.1865 4.6929 0 3.0684 -1.5215 4.6934 -4.1733 4.6934 h -3.146 v -9.3862 h 3.1328 Z M 147.8381 46.5836 c 1.5864 0 2.4961 -0.9492 2.4961 -3.1855 0 -2.249 -0.9097 -3.1851 -2.5088 -3.1851 h -1.2222 v 6.3706 h 1.2349 Z" id="path12"/>
    <path fill="#1d1d1b" d="M 155.5212 38.7052 v 9.3862 h -1.7939 v -9.3862 h 1.7939 Z" id="path14"/>
    <path fill="#1d1d1b" d="M 163.8805 40.6939 l -1.6387 0.5073 c -0.2988 -0.793 -0.8965 -1.2222 -1.6768 -1.2222 -0.8447 0 -1.3389 0.3643 -1.3389 1.04 s 0.9102 1.0532 1.9756 1.4429 c 2.3145 0.8452 2.8604 1.7681 2.8604 2.8862 0 1.8721 -1.1826 2.873 -3.2764 2.873 -1.5723 0 -3.0029 -0.8838 -3.5225 -2.2231 l 1.4814 -0.6499 c 0.4814 1.0273 1.1182 1.4692 2.041 1.4692 1.0273 0 1.5869 -0.4419 1.5869 -1.2354 0 -0.793 -0.8193 -1.1831 -2.3145 -1.7681 -1.4434 -0.5586 -2.522 -1.2607 -2.522 -2.6128 0 -1.5732 1.3003 -2.6265 3.0288 -2.6265 1.5215 0 2.7695 0.7803 3.3154 2.1191 Z" id="path16"/>
    <path fill="#1d1d1b" d="M 172.1745 41.045 l -1.625 0.3901 c -0.2734 -0.8711 -0.8848 -1.3521 -1.7031 -1.3521 -1.1963 0 -1.9238 1.0923 -1.9238 3.4062 0 2.2231 0.6758 3.2241 1.9756 3.2241 0.9365 0 1.3652 -0.416 1.833 -1.3911 l 1.6641 0.4419 c -0.5586 1.625 -1.7676 2.457 -3.4971 2.457 -2.4053 0 -3.7705 -1.7939 -3.7705 -4.8232 s 1.3652 -4.8232 3.7705 -4.8232 c 1.7812 0 2.834 0.8062 3.2764 2.4702 Z" id="path18"/>
    <path fill="#1d1d1b" d="M 175.736 38.7052 v 9.3862 h -1.7939 v -9.3862 h 1.7939 Z" id="path20"/>
    <path fill="#1d1d1b" d="M 181.3659 38.7052 c 2.0801 0 3.2754 0.936 3.2754 2.7949 s -1.1826 2.7954 -3.2627 2.7954 h -1.6904 v 3.7959 h -1.7939 v -9.3862 h 3.4717 Z M 181.1706 42.8394 c 1.0918 0 1.6768 -0.3511 1.6768 -1.3394 s -0.5977 -1.3389 -1.6768 -1.3389 h -1.4824 v 2.6782 h 1.4824 Z" id="path22"/>
    <path fill="#1d1d1b" d="M 187.7624 38.7052 v 7.8784 h 4.082 v 1.5078 h -5.877 v -9.3862 h 1.7949 Z" id="path24"/>
    <path fill="#1d1d1b" d="M 195.236 38.7052 v 9.3862 h -1.7939 v -9.3862 h 1.7939 Z" id="path26"/>
    <path fill="#1d1d1b" d="M 199.4352 38.7052 l 3.6924 6.396 h 0.0264 v -6.396 h 1.6895 v 9.3862 h -1.7285 l -3.835 -6.6821 h -0.0264 v 6.6821 h -1.6904 v -9.3862 h 1.8721 Z" id="path28"/>
    <path fill="#1d1d1b" d="M 211.0055 38.692 l 2.665 9.3994 h -1.7812 l -0.5195 -2.0283 h -2.9648 l -0.5586 2.0283 h -1.7812 l 2.7041 -9.3994 h 2.2363 Z M 209.9001 40.4991 l -1.1045 4.082 h 2.1836 l -1.0527 -4.082 h -0.0264 Z" id="path30"/>
    <path fill="#1d1d1b" d="M 218.6501 38.7052 c 1.8066 0 2.9512 1.001 2.9512 2.834 0 1.1831 -0.6377 2.0542 -1.7168 2.3662 l 2.0674 4.186 h -1.9893 l -1.7676 -3.8223 h -1.5479 v 3.8223 h -1.7939 v -9.3862 h 3.7969 Z M 218.0387 42.8131 c 1.1572 0 1.7676 -0.3247 1.7676 -1.3262 0 -0.9229 -0.585 -1.3257 -1.5078 -1.3257 h -1.6514 v 2.6519 h 1.3916 Z" id="path32"/>
    <path fill="#1d1d1b" d="M 224.279 38.7052 l 1.6123 3.7183 1.6123 -3.7183 h 1.8721 l -2.5879 5.6421 v 3.7441 h -1.7939 v -3.7441 l -2.5869 -5.6421 h 1.8721 Z" id="path34"/>
    <path fill="#1d1d1b" d="M 113.6745 54.545 l -1.625 0.3901 c -0.2729 -0.8711 -0.8838 -1.3521 -1.7031 -1.3521 -1.1958 0 -1.9238 1.0923 -1.9238 3.4062 0 2.2231 0.6758 3.2241 1.9761 3.2241 0.936 0 1.3652 -0.416 1.833 -1.3911 l 1.6641 0.4419 c -0.5591 1.625 -1.7681 2.457 -3.4971 2.457 -2.4053 0 -3.77 -1.7939 -3.77 -4.8232 s 1.3647 -4.8232 3.77 -4.8232 c 1.7812 0 2.834 0.8062 3.2759 2.4702 Z" id="path36"/>
    <path fill="#1d1d1b" d="M 121.4875 52.2052 v 1.5078 h -4.4199 v 2.2363 h 3.2109 v 1.5078 h -3.2109 v 2.6265 h 4.563 v 1.5078 h -6.3574 v -9.3862 h 6.2144 Z" id="path38"/>
    <path fill="#1d1d1b" d="M 125.0495 52.2052 l 3.6919 6.396 h 0.0259 v -6.396 h 1.6904 v 9.3862 h -1.7295 l -3.835 -6.6821 h -0.0259 v 6.6821 h -1.6899 v -9.3862 h 1.8721 Z" id="path40"/>
    <path fill="#1d1d1b" d="M 138.4782 52.192 v 1.5083 h -2.457 v 7.8911 h -1.7939 v -7.8911 h -2.457 v -1.5083 h 6.708 Z" id="path42"/>
    <path fill="#1d1d1b" d="M 146.0441 52.2052 v 1.5078 h -4.4199 v 2.2363 h 3.2109 v 1.5078 h -3.2109 v 2.6265 h 4.563 v 1.5078 h -6.3574 v -9.3862 h 6.2144 Z" id="path44"/>
    <path fill="#1d1d1b" d="M 151.4909 52.2052 c 1.8071 0 2.9512 1.001 2.9512 2.834 0 1.1831 -0.6367 2.0542 -1.7158 2.3662 l 2.0669 4.186 h -1.9893 l -1.7681 -3.8223 h -1.5469 v 3.8223 h -1.7939 v -9.3862 h 3.7959 Z M 150.88 56.3131 c 1.1567 0 1.7681 -0.3247 1.7681 -1.3262 0 -0.9229 -0.585 -1.3257 -1.5083 -1.3257 h -1.6509 v 2.6519 h 1.3911 Z" id="path46"/>
    <path fill="#1d1d1b" d="M 166.3112 52.2052 v 1.5078 h -4.1855 v 2.2363 h 3.1328 v 1.5078 h -3.1328 v 4.1343 h -1.7949 v -9.3862 h 5.9805 Z" id="path48"/>
    <path fill="#1d1d1b" d="M 174.8132 56.898 c 0 3.0811 -1.4043 4.8232 -3.9395 4.8232 s -3.9395 -1.7422 -3.9395 -4.8232 1.4043 -4.8232 3.9395 -4.8232 3.9395 1.7422 3.9395 4.8232 Z M 170.8737 60.2135 c 1.4561 0 2.1455 -1.0791 2.1455 -3.3154 0 -2.1968 -0.6631 -3.3149 -2.1582 -3.3149 -1.4043 0 -2.1318 1.0142 -2.1318 3.4062 0 2.1709 0.6758 3.2241 2.1445 3.2241 Z" id="path50"/>
    <path fill="#1d1d1b" d="M 180.026 52.2052 c 1.8066 0 2.9512 1.001 2.9512 2.834 0 1.1831 -0.6377 2.0542 -1.7168 2.3662 l 2.0674 4.186 h -1.9893 l -1.7676 -3.8223 h -1.5469 v 3.8223 h -1.7949 v -9.3862 h 3.7969 Z M 179.4147 56.3131 c 1.1572 0 1.7676 -0.3247 1.7676 -1.3262 0 -0.9229 -0.585 -1.3257 -1.5078 -1.3257 h -1.6504 v 2.6519 h 1.3906 Z" id="path52"/>
    <path fill="#1d1d1b" d="M 113.3239 67.6939 l -1.6382 0.5073 c -0.2993 -0.793 -0.897 -1.2222 -1.6772 -1.2222 -0.8447 0 -1.3389 0.3643 -1.3389 1.04 s 0.9102 1.0532 1.9761 1.4429 c 2.314 0.8452 2.8599 1.7681 2.8599 2.8862 0 1.8721 -1.1826 2.873 -3.2759 2.873 -1.5732 0 -3.0034 -0.8838 -3.5229 -2.2231 l 1.4819 -0.6499 c 0.481 1.0273 1.1177 1.4692 2.041 1.4692 1.0269 0 1.5859 -0.4419 1.5859 -1.2354 0 -0.793 -0.8188 -1.1831 -2.314 -1.7681 -1.4434 -0.5586 -2.522 -1.2607 -2.522 -2.6128 0 -1.5732 1.2998 -2.6265 3.0288 -2.6265 1.521 0 2.769 0.7803 3.3154 2.1191 Z" id="path54"/>
    <path fill="#1d1d1b" d="M 121.6178 68.045 l -1.6255 0.3901 c -0.2729 -0.8711 -0.8838 -1.3521 -1.7026 -1.3521 -1.1963 0 -1.9243 1.0923 -1.9243 3.4062 0 2.2231 0.6763 3.2241 1.9761 3.2241 0.936 0 1.3652 -0.416 1.833 -1.3911 l 1.6641 0.4419 c -0.5591 1.625 -1.7681 2.457 -3.4971 2.457 -2.4053 0 -3.77 -1.7939 -3.77 -4.8232 s 1.3647 -4.8232 3.77 -4.8232 c 1.7812 0 2.834 0.8062 3.2764 2.4702 Z" id="path56"/>
    <path fill="#1d1d1b" d="M 125.1794 65.7052 v 9.3862 h -1.7939 v -9.3862 h 1.7939 Z" id="path58"/>
    <path fill="#1d1d1b" d="M 133.7594 65.7052 v 1.5078 h -4.4199 v 2.2363 h 3.2109 v 1.5078 h -3.2109 v 2.6265 h 4.563 v 1.5078 h -6.3569 v -9.3862 h 6.2139 Z" id="path60"/>
    <path fill="#1d1d1b" d="M 137.3215 65.7052 l 3.6919 6.396 h 0.0259 v -6.396 h 1.6904 v 9.3862 h -1.729 l -3.8354 -6.6821 h -0.0259 v 6.6821 h -1.6899 v -9.3862 h 1.8721 Z" id="path62"/>
    <path fill="#1d1d1b" d="M 150.7502 65.692 v 1.5083 h -2.457 v 7.8911 h -1.7939 v -7.8911 h -2.4575 v -1.5083 h 6.7085 Z" id="path64"/>
    <path fill="#1d1d1b" d="M 154.0651 65.7052 v 9.3862 h -1.7939 v -9.3862 h 1.7939 Z" id="path66"/>
    <path fill="#1d1d1b" d="M 162.3337 65.7052 v 1.5078 h -4.1865 v 2.2363 h 3.1328 v 1.5078 h -3.1328 v 4.1343 h -1.7939 v -9.3862 h 5.9805 Z" id="path68"/>
    <path fill="#1d1d1b" d="M 165.6217 65.7052 v 9.3862 h -1.7939 v -9.3862 h 1.7939 Z" id="path70"/>
    <path fill="#1d1d1b" d="M 174.3327 68.045 l -1.625 0.3901 c -0.2734 -0.8711 -0.8848 -1.3521 -1.7031 -1.3521 -1.1963 0 -1.9238 1.0923 -1.9238 3.4062 0 2.2231 0.6758 3.2241 1.9756 3.2241 0.9365 0 1.3652 -0.416 1.833 -1.3911 l 1.6641 0.4419 c -0.5586 1.625 -1.7676 2.457 -3.4971 2.457 -2.4053 0 -3.7705 -1.7939 -3.7705 -4.8232 s 1.3652 -4.8232 3.7705 -4.8232 c 1.7812 0 2.834 0.8062 3.2764 2.4702 Z" id="path72"/>
    <path fill="#1d1d1b" d="M 186.2409 68.045 l -1.625 0.3901 c -0.2734 -0.8711 -0.8848 -1.3521 -1.7031 -1.3521 -1.1963 0 -1.9238 1.0923 -1.9238 3.4062 0 2.2231 0.6758 3.2241 1.9756 3.2241 0.9365 0 1.3652 -0.416 1.833 -1.3911 l 1.6641 0.4419 c -0.5586 1.625 -1.7676 2.457 -3.4971 2.457 -2.4053 0 -3.7705 -1.7939 -3.7705 -4.8232 s 1.3652 -4.8232 3.7705 -4.8232 c 1.7812 0 2.834 0.8062 3.2764 2.4702 Z" id="path74"/>
    <path fill="#1d1d1b" d="M 195.0163 70.398 c 0 3.0811 -1.4043 4.8232 -3.9395 4.8232 s -3.9395 -1.7422 -3.9395 -4.8232 1.4043 -4.8232 3.9395 -4.8232 3.9395 1.7422 3.9395 4.8232 Z M 191.0768 73.7135 c 1.4561 0 2.1455 -1.0791 2.1455 -3.3154 0 -2.1968 -0.6631 -3.3149 -2.1582 -3.3149 -1.4043 0 -2.1318 1.0142 -2.1318 3.4062 0 2.1709 0.6758 3.2241 2.1445 3.2241 Z" id="path76"/>
    <path fill="#1d1d1b" d="M 198.9938 65.7052 l 1.8066 6.5522 h 0.0264 l 1.8203 -6.5522 h 2.5479 v 9.3862 h -1.5596 v -7.3843 h -0.0264 l -2.1064 7.3843 h -1.3652 l -2.0801 -7.3843 h -0.0254 v 7.3843 h -1.5605 v -9.3862 h 2.5225 Z" id="path78"/>
    <path fill="#1d1d1b" d="M 210.6032 65.7052 c 2.0801 0 3.2754 0.936 3.2754 2.7949 s -1.1826 2.7954 -3.2627 2.7954 h -1.6904 v 3.7959 h -1.7939 v -9.3862 h 3.4717 Z M 210.4079 69.8394 c 1.0918 0 1.6768 -0.3511 1.6768 -1.3394 s -0.5977 -1.3389 -1.6768 -1.3389 h -1.4824 v 2.6782 h 1.4824 Z" id="path80"/>
    <path fill="#1d1d1b" d="M 217.0768 65.7052 v 5.9932 c 0 1.3389 0.4814 2.0151 1.8076 2.0151 1.3389 0 1.8066 -0.689 1.8066 -2.0283 v -5.98 h 1.7939 v 5.9409 c 0 2.2754 -1.2871 3.5752 -3.6006 3.5752 -2.3535 0 -3.6016 -1.3521 -3.6016 -3.5879 v -5.9282 h 1.7939 Z" id="path82"/>
    <path fill="#1d1d1b" d="M 230.5456 65.692 v 1.5083 h -2.458 v 7.8911 h -1.7939 v -7.8911 h -2.457 v -1.5083 h 6.709 Z" id="path84"/>
    <path fill="#1d1d1b" d="M 233.859 65.7052 v 9.3862 h -1.7939 v -9.3862 h 1.7939 Z" id="path86"/>
    <path fill="#1d1d1b" d="M 238.0583 65.7052 l 3.6924 6.396 h 0.0264 v -6.396 h 1.6895 v 9.3862 h -1.7285 l -3.835 -6.6821 h -0.0264 v 6.6821 h -1.6904 v -9.3862 h 1.8721 Z" id="path88"/>
    <path fill="#1d1d1b" d="M 252.2282 67.9674 l -1.6641 0.4419 c -0.416 -0.9233 -0.9482 -1.3262 -1.8848 -1.3262 -1.2354 0 -1.9756 1.1831 -1.9756 3.4062 0 1.9761 0.7402 3.2241 1.9883 3.2241 1.1309 0 1.9111 -0.728 1.9629 -1.8594 h -1.7803 v -1.5078 h 3.5098 v 4.7451 h -1.2998 v -0.9619 c -0.7148 0.7798 -1.3916 1.0918 -2.4443 1.0918 -2.3525 0 -3.7314 -1.7808 -3.7314 -4.6802 0 -3.0029 1.3525 -4.9663 3.9131 -4.9663 1.6641 0 2.8994 0.8193 3.4062 2.3926 Z" id="path90"/>
    <rect fill="#1d1d1b" x="99.7014" width=".2672" height="104.3816" id="rect92"/>
  </g>
  <g id="uuid-afbf00af-38e8-4fdc-994a-a8e3d15844aa">
    <path fill="#333" d="M 7.2593 84.226 c 0 1.9867 -1.6251 3.5974 -3.6299 3.5974 s -3.6295 -1.6107 -3.6295 -3.5974 1.6251 -3.5974 3.6295 -3.5974 3.6299 1.6107 3.6299 3.5974 Z" id="path95"/>
    <path fill="#333" d="M 23.2488 84.226 c 0 1.9867 -1.6251 3.5974 -3.6298 3.5974 s -3.6295 -1.6107 -3.6295 -3.5974 1.6251 -3.5974 3.6295 -3.5974 3.6298 1.6107 3.6298 3.5974 Z" id="path97"/>
    <path fill="#333" d="M 39.2384 84.226 c 0 1.9867 -1.6251 3.5974 -3.6299 3.5974 s -3.6295 -1.6107 -3.6295 -3.5974 1.6251 -3.5974 3.6295 -3.5974 3.6299 1.6107 3.6299 3.5974 Z" id="path99"/>
    <path fill="#333" d="M 55.228 84.2147 c 0 1.9867 -1.6251 3.5974 -3.6299 3.5974 s -3.6296 -1.6107 -3.6296 -3.5974 1.6251 -3.5974 3.6296 -3.5974 3.6299 1.6107 3.6299 3.5974 Z" id="path101"/>
    <path fill="#333" d="M 71.2175 84.1813 c 0 1.9867 -1.6251 3.5974 -3.6299 3.5974 s -3.6296 -1.6107 -3.6296 -3.5974 1.6251 -3.5974 3.6296 -3.5974 3.6299 1.6107 3.6299 3.5974 Z" id="path103"/>
    <path fill="#a00000" d="M 93.7185 84.5996 c 0 1.7742 -1.612 3.2126 -3.6008 3.2126 h -7.3889 c -1.9888 0 -3.6008 -1.4384 -3.6008 -3.2126 v -0.8031 c 0 -1.7741 1.6121 -3.2126 3.6008 -3.2126 h 7.3889 c 1.9888 0 3.6008 1.4385 3.6008 3.2126 v 0.8031 Z" id="path105"/>
    <path fill="#333" d="M 7.2328 72.0359 c -0.1004 2.2672 -1.3553 3.9572 -3.6199 3.9227 h 0 c -2.1225 0.0376 -3.6419 -1.8897 -3.5833 -3.9227 l 0.0027 -29.7504 c 0.014 -1.2043 1.0866 -3.6236 3.5806 -3.5502 h 0 c 2.3984 -0.0551 3.6366 2.2623 3.6283 3.5506 l -0.0084 29.75 Z" id="path107"/>
    <path fill="#333" d="M 23.1173 72.0362 c -0.1004 2.2672 -1.3553 3.9572 -3.6199 3.9227 h 0 c -2.1225 0.0376 -3.6419 -1.8897 -3.5833 -3.9227 l 0.0027 -29.7503 c 0.014 -1.2043 1.0866 -3.6236 3.5806 -3.5502 h 0 c 2.3984 -0.0552 3.6366 2.2623 3.6283 3.5506 l -0.0084 29.7499 Z" id="path109"/>
    <path fill="#333" d="M 55.0649 72.0362 c -0.1004 2.2672 -1.3553 3.9572 -3.6199 3.9227 h 0 c -2.1226 0.0376 -3.6419 -1.8897 -3.5833 -3.9227 l 0.0029 -29.7503 c 0.0139 -1.2043 1.0866 -3.6236 3.5804 -3.5502 h 0 c 2.3985 -0.0552 3.6367 2.2623 3.6283 3.5506 l -0.0084 29.7499 Z" id="path111"/>
    <path fill="#333" d="M 71.2871 72.0362 c -0.1004 2.2672 -1.3553 3.9572 -3.6199 3.9227 h 0 c -2.1226 0.0376 -3.6419 -1.8897 -3.5833 -3.9227 l 0.0029 -29.7503 c 0.0138 -1.2043 1.0865 -3.6236 3.5804 -3.5502 h 0 c 2.3985 -0.0552 3.6367 2.2623 3.6283 3.5506 l -0.0084 29.7499 Z" id="path113"/>
    <path fill="#333" d="M 49.716 75.5079 c -1.5728 -0.9817 -7.2702 -6.9857 -14.6156 -6.9523 -7.0498 0.1119 -11.6172 5.3875 -13.2904 6.5923 l 1.2539 -9.5 s 6.3504 -3.7729 12.3071 -3.7059 c 5.7726 -0.2008 12.6501 3.8074 12.6501 3.8074 l 1.6949 9.7586 Z" id="path115"/>
    <path fill="#333" d="M 72.5221 41.579 c 0.427 -3.5431 3.5556 -2.8738 7.7722 -2.8403 6.4087 0.0669 8.3384 1.2717 10.4355 3.5138 2.1977 2.2534 2.6772 6.9384 1.8296 9.9724 -1.6847 5.7559 -6.8383 6.5814 -7.541 6.8715 2.2309 3.7591 7.6077 10.0783 8.3442 12.8948 0.5017 1.3273 0.0837 2.5713 -1.2385 3.4246 -2.6688 1.3386 -4.4628 -0.079 -5.3663 -1.2837 -2.707 -3.6691 -6.2686 -12.2206 -10.0608 -13.6917 -0.7279 -0.1757 -3.907 0.41 -4.1663 -3.0955 0.3095 -4.4424 4.7629 -2.4708 10.0226 -3.2461 3.2014 -0.4685 4.6181 -0.9035 4.6963 -4.5065 -0.0073 -2.7411 -2.097 -4.1496 -3.4578 -4.4173 -6.2916 -1.1658 -11.2778 1.4528 -11.2695 -3.5961 Z" id="path117"/>
  </g>
</svg>
