<?xml version="1.0" encoding="UTF-8" standalone="no"?>
<svg
   enable-background="new 0 0 340.157 218.268"
   height="113"
   viewBox="0 0 195.99999 113"
   width="196"
   version="1.1"
   id="svg40"
   sodipodi:docname="Startseite Carl-Zeiss-Stiftung.svg"
   inkscape:version="1.1.2 (0a00cf5339, 2022-02-04, custom)"
   xmlns:inkscape="http://www.inkscape.org/namespaces/inkscape"
   xmlns:sodipodi="http://sodipodi.sourceforge.net/DTD/sodipodi-0.dtd"
   xmlns="http://www.w3.org/2000/svg"
   xmlns:svg="http://www.w3.org/2000/svg">
  <defs
     id="defs44" />
  <sodipodi:namedview
     id="namedview42"
     pagecolor="#ffffff"
     bordercolor="#999999"
     borderopacity="1"
     inkscape:pageshadow="0"
     inkscape:pageopacity="0"
     inkscape:pagecheckerboard="0"
     showgrid="false"
     fit-margin-top="2"
     fit-margin-left="2"
     fit-margin-right="2"
     fit-margin-bottom="2"
     inkscape:zoom="2.0953715"
     inkscape:cx="-24.100739"
     inkscape:cy="26.964193"
     inkscape:window-width="1920"
     inkscape:window-height="1017"
     inkscape:window-x="-8"
     inkscape:window-y="-8"
     inkscape:window-maximized="1"
     inkscape:current-layer="svg40" />
  <g
     transform="matrix(0.67733301,0,0,0.67461483,-17.199882,-17.123523)"
     id="g38">
    <path
       fill="#4097db"
       d="m 181.243,140.749 c -1.351,0.656 -3.103,0.912 -5.621,0.912 -7.702,0 -12.155,-4.27 -12.155,-12.811 0,-8.943 4.38,-13.469 12.52,-13.469 2.445,0 4.051,0.401 5.219,0.766 v 3.104 c -1.605,-0.584 -3.723,-0.804 -4.891,-0.804 -6.607,0 -9.344,3.212 -9.344,10.073 0,6.68 3.176,10.075 9.38,10.075 1.534,0 3.065,-0.219 4.892,-1.022 z"
       id="path2" />
    <path
       fill="#4097db"
       d="m 199.654,141.296 h -2.701 v -2.665 h -0.072 c -1.022,1.568 -2.957,2.957 -6.097,2.957 -3.759,0 -6.131,-2.08 -6.131,-5.731 0,-3.758 2.556,-5.657 8.358,-5.657 1.898,0 2.957,0.184 3.577,0.22 v -1.204 c 0,-2.849 -1.388,-4.053 -4.708,-4.053 -1.789,0 -4.053,0.512 -5.512,1.241 v -2.81 c 1.532,-0.694 3.723,-1.204 5.841,-1.204 5.803,0 7.444,2.225 7.444,7.591 v 11.315 z m -3.065,-8.505 c -0.657,-0.071 -1.314,-0.219 -3.321,-0.219 -4.198,0 -5.329,1.241 -5.329,3.031 0,1.751 1.131,3.21 3.65,3.21 3.283,0 5,-1.86 5,-4.781 z"
       id="path4" />
    <path
       fill="#4097db"
       d="m 208.157,141.295 h -3.066 v -18.614 h 2.848 v 3.029 h 0.073 c 0.984,-2.227 2.591,-3.32 4.963,-3.32 0.475,0 1.533,0.107 2.154,0.255 v 2.92 c -0.693,-0.255 -1.314,-0.329 -1.898,-0.329 -3.941,0 -5.073,2.701 -5.073,7.591 v 8.468 z"
       id="path6" />
    <path
       fill="#4097db"
       d="m 218.84399,113.921 h 3.066 v 27.375 h -3.066 z"
       id="path8" />
    <path
       fill="#4097db"
       d="m 253.871,118.812 -13.65,19.418 h 13.87 v 3.065 h -17.629 v -3.065 l 13.686,-19.418 h -13.249 v -3.066 h 16.972 z"
       id="path10" />
    <path
       fill="#4097db"
       d="m 271.679,140.346 c -0.986,0.695 -2.956,1.242 -5.511,1.242 -6.57,0 -9.637,-3.577 -9.637,-9.672 0,-5.732 3.141,-9.527 8.395,-9.527 5.986,0 8.176,4.124 8.176,9.38 v 0.986 h -13.358 c 0.329,4.051 2.336,6.058 6.68,6.058 2.592,0 4.052,-0.584 5.256,-1.313 v 2.846 z M 269.817,130.2 c 0.073,-2.848 -1.497,-5.036 -4.745,-5.036 -3.139,0 -4.927,1.752 -5.293,5.036 z"
       id="path12" />
    <path
       fill="#4097db"
       d="m 279.027,118.667 c -1.168,0 -1.972,-0.841 -1.972,-2.009 0,-1.168 0.804,-1.971 1.972,-1.971 1.168,0 2.007,0.803 2.007,1.971 0,1.168 -0.839,2.009 -2.007,2.009 m 1.533,22.629 h -3.065 v -18.615 h 3.065 z"
       id="path14" />
    <path
       fill="#4097db"
       d="m 285.126,137.537 c 2.007,1.131 3.686,1.276 4.854,1.276 2.117,0 3.358,-0.912 3.358,-2.846 0,-3.796 -8.433,-2.228 -8.433,-8.359 0,-3.102 2.336,-5.218 6.57,-5.218 2.045,0 3.65,0.401 4.162,0.584 v 2.919 c -1.06,-0.438 -2.556,-0.73 -4.162,-0.73 -1.824,0 -3.285,0.584 -3.285,2.189 0,3.76 8.433,1.863 8.433,8.652 0,3.869 -2.812,5.584 -6.752,5.584 -2.081,0 -3.541,-0.476 -4.745,-1.023 z"
       id="path16" />
    <path
       fill="#4097db"
       d="m 300.313,137.537 c 2.008,1.131 3.688,1.276 4.854,1.276 2.117,0 3.358,-0.912 3.358,-2.846 0,-3.796 -8.432,-2.228 -8.432,-8.359 0,-3.102 2.336,-5.218 6.571,-5.218 2.044,0 3.648,0.401 4.159,0.584 v 2.919 c -1.058,-0.438 -2.555,-0.73 -4.159,-0.73 -1.825,0 -3.286,0.584 -3.286,2.189 0,3.76 8.433,1.863 8.433,8.652 0,3.869 -2.811,5.584 -6.753,5.584 -2.081,0 -3.54,-0.476 -4.746,-1.023 v -3.028 z"
       id="path18" />
    <path
       fill="#4097db"
       d="m 164.962,177.621 c 1.168,0.805 3.541,1.789 6.168,1.789 3.396,0 5.038,-1.532 5.038,-4.196 0,-2.957 -1.424,-3.761 -4.928,-5.111 l -0.876,-0.328 c -3.688,-1.424 -5.511,-3.139 -5.511,-7.045 0,-4.125 3.103,-6.533 8.176,-6.533 2.663,0 4.416,0.584 5.182,1.06 v 3.138 c -1.861,-0.876 -3.832,-1.13 -5.401,-1.13 -2.848,0 -4.453,1.168 -4.453,3.466 0,2.008 0.803,3.176 4.818,4.709 l 0.948,0.365 c 4.453,1.715 5.548,3.869 5.548,7.189 0,4.818 -3.356,7.482 -8.248,7.482 -2.701,0 -4.746,-0.62 -6.461,-1.605 z"
       id="path20" />
    <path
       fill="#4097db"
       d="m 193.342,166.27 h -5.146 v 10.037 c 0,2.264 0.656,3.321 3.028,3.321 0.73,0 1.497,-0.146 2.191,-0.51 v 2.7 c -0.768,0.401 -1.679,0.585 -2.738,0.585 -3.796,0 -5.548,-1.789 -5.548,-5.403 v -10.73 h -3.403 v -2.773 h 3.403 v -3.943 l 3.066,-1.095 v 5.038 h 5.146 v 2.773 z"
       id="path22" />
    <path
       fill="#4097db"
       d="m 199.443,159.481 c -1.168,0 -1.972,-0.839 -1.972,-2.007 0,-1.168 0.804,-1.971 1.972,-1.971 1.167,0 2.007,0.803 2.007,1.971 0,1.168 -0.84,2.007 -2.007,2.007 m 1.533,22.63 h -3.065 v -18.615 h 3.065 z"
       id="path24" />
    <path
       fill="#4097db"
       d="m 216.281,166.27 h -4.471 v 15.842 h -3.065 V 166.27 h -3.688 v -2.773 h 3.688 v -2.52 c 0,-3.904 1.277,-6.532 5.767,-6.532 0.729,0 1.387,0.071 2.336,0.219 v 2.772 c -0.293,-0.071 -0.949,-0.219 -1.716,-0.219 -2.591,0 -3.321,0.84 -3.321,4.417 v 1.862 h 4.471 v 2.774 z"
       id="path26" />
    <path
       fill="#4097db"
       d="m 231.087,166.27 h -5.146 v 10.037 c 0,2.264 0.655,3.321 3.028,3.321 0.73,0 1.496,-0.146 2.19,-0.51 v 2.7 c -0.767,0.401 -1.679,0.585 -2.737,0.585 -3.796,0 -5.548,-1.789 -5.548,-5.403 v -10.73 h -3.403 v -2.773 h 3.403 v -3.943 l 3.066,-1.095 v 5.038 h 5.146 v 2.773 z"
       id="path28" />
    <path
       fill="#4097db"
       d="m 234.888,163.496 h 3.066 v 9.637 c 0,4.964 1.021,6.497 4.562,6.497 3.796,0 5.402,-2.885 5.402,-7.52 v -8.614 h 3.065 v 18.615 h -3.065 v -2.665 h -0.072 c -1.388,2.008 -3.578,2.957 -5.987,2.957 -4.817,0 -6.971,-2.336 -6.971,-7.847 z"
       id="path30" />
    <path
       fill="#4097db"
       d="m 271.65,182.112 h -3.066 v -9.638 c 0,-4.964 -1.022,-6.497 -4.563,-6.497 -3.797,0 -5.401,2.885 -5.401,7.521 v 8.614 h -3.067 v -18.615 h 3.067 v 2.664 h 0.072 c 1.387,-2.007 3.576,-2.956 5.985,-2.956 4.818,0 6.973,2.336 6.973,7.847 z"
       id="path32" />
    <path
       fill="#4097db"
       d="m 289.586,163.496 h 2.92 v 17.776 c 0,5.984 -3.212,8.649 -9.052,8.649 -2.299,0 -5.109,-0.474 -6.642,-1.132 v -3.029 c 1.131,0.62 3.32,1.388 6.313,1.388 4.489,0 6.315,-1.972 6.315,-5.731 v -2.445 h -0.074 c -1.241,2.044 -4.051,3.141 -6.131,3.141 -5.621,0 -8.067,-3.433 -8.067,-9.162 0,-6.023 2.373,-9.746 8.322,-9.746 2.408,0 4.964,1.059 6.023,2.957 h 0.071 v -2.666 z m -11.132,9.27 c 0,4.161 1.788,6.57 5.292,6.57 3.688,0 5.695,-2.664 5.695,-6.497 0,-4.124 -1.789,-6.861 -5.621,-6.861 -3.578,0 -5.366,2.045 -5.366,6.788"
       id="path34" />
    <path
       fill="#4097db"
       d="m 249.5,32.023 c 0.049,1.221 -0.272,2.428 -0.592,3.611 -0.386,1.421 -0.773,2.844 -1.158,4.265 -0.729,2.694 -1.632,5.628 -3.994,7.133 -1.346,0.852 -3.192,1.31 -3.714,2.807 -0.282,0.806 -0.065,1.69 0.15,2.517 0.56,2.136 1.531,4.436 1.307,6.672 -0.218,2.205 -1.267,4.257 -2.411,6.125 -1.016,1.652 -2.123,3.253 -3.313,4.786 -0.896,1.154 -1.853,2.282 -3.019,3.17 -0.756,0.579 -1.588,1.048 -2.419,1.514 -1.607,0.906 -3.218,1.811 -4.837,2.702 -2.075,1.14 -4.221,2.271 -6.567,2.606 -1.308,0.186 -2.663,0.055 -3.962,0.263 -1.357,0.22 -2.579,0.699 -3.987,0.579 -0.562,-0.049 -1.119,-0.176 -1.683,-0.151 -0.3,0.017 -0.598,0.075 -0.899,0.08 -0.249,0.002 -0.498,-0.031 -0.747,-0.067 -1.292,-0.186 -2.587,-0.473 -3.748,-1.067 -1.16,-0.596 -2.182,-1.531 -2.672,-2.734 -0.092,-0.226 -0.165,-0.469 -0.146,-0.712 0.027,-0.381 0.28,-0.713 0.552,-0.986 0.416,-0.418 0.911,-0.768 1.457,-0.996 0.589,-0.244 1.223,-0.35 1.848,-0.474 2.373,-0.478 4.588,-1.371 6.872,-2.134 0.625,-0.21 1.325,-0.491 1.885,-0.84 0.563,-0.355 1.05,-1.045 1.468,-1.55 0.941,-1.144 1.737,-2.405 2.355,-3.745 0.249,-0.543 0.476,-1.121 0.442,-1.715 -0.022,-0.409 -0.169,-0.802 -0.336,-1.175 -0.723,-1.614 -1.905,-3.019 -3.378,-4.012 -0.436,-0.293 -0.905,-0.553 -1.419,-0.678 -1.185,-0.291 -2.526,0.159 -3.61,-0.4 -0.274,-0.141 -0.521,-0.342 -0.817,-0.425 -0.36,-0.098 -0.744,-0.009 -1.107,0.081 -1.501,0.37 -3.002,0.739 -4.453,1.267 -2.104,0.766 -4.078,1.856 -6.158,2.687 -1.277,0.513 -2.598,0.928 -3.853,1.49 -0.871,0.387 -1.708,0.845 -2.588,1.216 -0.956,0.409 -1.955,0.714 -2.92,1.11 -1.572,0.648 -3.058,1.508 -4.563,2.288 -0.795,0.412 -1.59,0.825 -2.375,1.249 -1.79,0.963 -3.547,1.987 -5.321,2.976 -4.503,2.506 -9.091,4.847 -13.665,7.221 -1.137,0.59 -2.258,1.258 -3.29,2.004 -1.123,0.806 -2.421,1.441 -3.618,2.138 -2.479,1.446 -4.963,2.897 -7.445,4.343 -0.424,0.246 -0.848,0.498 -1.21,0.829 -0.162,0.148 -0.315,0.314 -0.512,0.403 -0.137,0.059 -0.29,0.08 -0.435,0.116 -0.365,0.098 -0.69,0.308 -1.005,0.514 -0.197,0.13 -0.375,0.252 -0.546,0.372 -0.396,0.423 -0.801,0.834 -1.214,1.151 -0.82,0.631 -1.452,1.263 -2.132,2.052 -1.537,1.784 -3.076,3.565 -4.613,5.348 -0.689,0.796 -1.379,1.595 -2.162,2.295 -0.816,0.729 -1.727,1.345 -2.554,2.058 -2.305,1.983 -3.908,4.662 -6.165,6.698 -0.963,0.868 -2.035,1.618 -2.922,2.56 -0.401,0.423 -0.759,0.887 -1.139,1.33 -1.203,1.404 -2.691,2.566 -4,3.871 -1.315,1.31 -2.627,2.637 -4.152,3.708 -0.988,0.695 -2.059,1.276 -2.967,2.072 -0.714,0.625 -1.316,1.372 -2.048,1.977 -0.676,0.562 -1.465,0.883 -2.166,1.37 -0.896,0.622 -1.683,1.517 -2.493,2.248 -1.648,1.493 -3.298,2.988 -4.948,4.481 -0.723,0.654 -1.446,1.31 -2.192,1.943 -0.837,0.713 -1.698,1.4 -2.567,2.076 -9.133,7.131 -18.924,13.429 -29.214,18.79 -1.007,0.526 -2.04,1.049 -3.161,1.223 -1.098,0.17 -2.214,-0.002 -3.311,-0.172 -1.839,-0.288 -3.885,-0.697 -4.954,-2.213 -0.992,-1.404 -0.779,-3.384 0.066,-4.883 1.162,-2.064 3.338,-3.396 4.746,-5.308 0.423,-0.577 0.805,-1.187 1.267,-1.732 0.468,-0.556 1.017,-1.04 1.56,-1.523 0.811,-0.713 1.618,-1.428 2.475,-2.08 0.962,-0.73 1.979,-1.381 2.942,-2.111 0.787,-0.601 1.368,-1.454 2.213,-1.966 0.838,-0.51 1.676,-1.068 2.257,-1.866 0.284,-0.391 0.513,-0.837 0.912,-1.107 0.396,-0.262 0.896,-0.307 1.354,-0.449 0.905,-0.285 1.624,-0.967 2.444,-1.45 0.711,-0.42 1.51,-0.697 2.17,-1.197 0.543,-0.41 0.976,-0.951 1.517,-1.36 0.714,-0.539 1.612,-0.829 2.248,-1.471 0.732,-0.747 1.59,-1.338 2.368,-2.041 0.486,-0.443 1.073,-0.763 1.682,-1.02 0.878,-0.37 1.677,-0.86 2.324,-1.573 0.344,-0.377 0.744,-0.657 1.207,-0.878 0.367,-0.174 0.783,-0.326 1.056,-0.611 1.81,-1.844 4.217,-2.916 6.105,-4.656 0.58,-0.531 1.189,-1.025 1.725,-1.593 1.259,-1.332 2.93,-2.145 4.23,-3.421 0.223,-0.221 0.487,-0.4 0.696,-0.635 0.449,-0.498 0.979,-0.816 1.632,-1.049 0.979,-0.349 1.886,-0.903 2.534,-1.735 0.729,-0.927 1.727,-1.438 2.735,-1.934 0.854,-0.426 1.663,-0.884 2.311,-1.58 0.286,-0.305 0.653,-0.491 0.984,-0.727 1.477,-1.053 2.945,-2.105 4.337,-3.293 1.045,-0.891 2.297,-1.627 3.59,-2.193 1.354,-0.602 2.468,-1.446 3.319,-2.678 0.658,-0.948 1.537,-1.726 2.048,-2.789 0.083,-0.186 0.287,-0.332 0.465,-0.453 1.537,-1.071 2.542,-2.659 3.857,-3.944 0.662,-0.652 1.005,-1.568 1.62,-2.29 0.85,-0.994 1.738,-1.968 2.355,-3.147 0.106,-0.206 0.357,-0.34 0.519,-0.53 0.407,-0.476 0.447,-1.115 0.747,-1.644 0.503,-0.886 1.483,-1.314 1.995,-2.168 0.278,-0.463 0.507,-0.978 0.754,-1.464 0.707,-1.412 1.639,-2.727 1.934,-4.328 0.101,-0.546 0.37,-1.045 0.701,-1.514 0.743,-1.039 1.276,-2.15 1.552,-3.35 0.127,-0.547 0.203,-1.107 0.221,-1.688 0.035,-1.452 -0.73,-2.088 -2.149,-1.764 -0.64,0.142 -1.232,0.084 -1.856,0.07 -1.211,-0.026 -2.421,-0.18 -3.637,-0.013 -0.603,0.079 -1.249,-0.038 -1.856,-0.115 -0.581,-0.069 -1.121,-0.019 -1.675,0.043 -0.421,0.051 -0.814,0.036 -1.152,-0.254 -0.121,-0.107 -0.249,-0.236 -0.409,-0.208 -1.099,0.184 -1.555,-0.802 -2.309,-1.243 -0.148,-0.077 -0.246,-0.289 -0.3,-0.464 -0.289,-0.855 -0.629,-1.705 -0.808,-2.583 -0.229,-1.109 0.032,-2.155 0.699,-3.102 1.303,-1.83 2.984,-3.077 5.244,-3.486 0.632,-0.119 1.13,-0.535 1.674,-0.844 1.826,-1.031 3.623,-2.114 5.473,-3.088 1.215,-0.645 2.487,-1.191 3.806,-1.611 0.627,-0.202 1.227,-0.482 1.836,-0.723 0.4,-0.157 0.6,-0.485 0.627,-0.865 0.018,-0.333 -0.24,-0.596 -0.538,-0.713 -0.249,-0.096 -0.5,-0.214 -0.707,-0.384 -0.22,-0.178 -0.281,-0.434 -0.465,-0.619 -0.427,-0.439 -1.452,-0.552 -2.026,-0.556 -0.589,-0.006 -1.17,0.116 -1.747,0.232 -2.174,0.447 -4.354,0.871 -6.541,1.267 -0.869,0.159 -1.839,0.461 -2.724,0.412 -0.805,-0.048 -1.706,-0.079 -2.544,0.037 -0.839,0.118 -1.717,0.623 -2.573,0.407 -0.654,-0.166 -1.35,-0.357 -1.808,-0.849 -0.476,-0.517 -0.596,-1.262 -0.69,-1.957 -0.075,-0.552 -0.068,-1.26 0.445,-1.478 0.192,-0.084 0.416,-0.07 0.614,-0.142 0.36,-0.134 0.558,-0.528 0.896,-0.717 0.447,-0.244 1.041,-0.076 1.485,-0.322 0.301,-0.168 0.474,-0.488 0.705,-0.742 0.31,-0.335 0.723,-0.556 1.142,-0.741 1.87,-0.831 3.946,-1.14 5.802,-1.997 0.597,-0.276 1.127,-0.602 1.787,-0.691 1.117,-0.148 1.84,-0.437 2.825,-0.927 0.536,-0.265 1.158,-0.216 1.741,-0.24 0.998,-0.04 1.972,-0.352 2.973,-0.359 0.659,-0.003 1.294,0.114 1.951,0.009 0.667,-0.103 1.312,-0.32 1.987,-0.385 0.703,-0.07 1.444,0.023 2.091,-0.259 0.536,-0.232 1.003,-0.547 1.612,-0.518 1.139,0.052 2.062,0.092 3.198,-0.02 1.052,-0.107 2.122,-0.079 3.164,0.099 2.062,0.361 4.055,1.368 5.171,3.185 0.129,0.212 0.247,0.433 0.349,0.661 0.192,0.427 0.333,0.876 0.411,1.336 0.107,0.615 0.103,1.273 -0.186,1.826 -0.183,0.352 -0.472,0.634 -0.716,0.948 -0.261,0.339 -0.474,0.714 -0.729,1.06 -0.639,0.869 -1.544,1.549 -2.036,2.511 -0.293,0.568 -0.42,1.205 -0.62,1.815 -0.458,1.391 -1.77,2.5 -2.914,3.349 -1.264,0.94 -2.648,1.706 -3.928,2.622 -1.192,0.851 -2.287,1.832 -3.32,2.87 -0.167,0.171 -0.334,0.345 -0.437,0.559 -0.102,0.211 -0.133,0.471 -0.019,0.678 0.09,0.164 0.255,0.274 0.418,0.355 0.62,0.307 1.343,0.339 2.03,0.257 0.687,-0.083 1.354,-0.27 2.037,-0.384 1.808,-0.301 3.655,-0.068 5.473,0.167 1.005,0.128 1.781,0.392 2.535,1.077 0.531,0.481 0.972,0.959 1.191,1.658 0.187,0.596 0.221,1.227 0.205,1.852 -0.051,1.957 -0.665,3.836 -1.541,5.575 -0.898,1.785 -2.003,3.513 -3.118,5.169 -0.754,1.12 -1.574,2.193 -2.457,3.219 -0.802,0.927 -1.657,1.811 -2.51,2.692 0.14,-0.064 0.273,-0.14 0.414,-0.201 0.84,-0.367 1.67,-0.759 2.486,-1.179 0.776,-0.396 1.697,-0.776 2.379,-1.319 0.845,-0.674 1.81,-1.148 2.742,-1.684 1.039,-0.597 2.08,-1.196 3.122,-1.798 0.703,-0.405 1.402,-0.808 2.106,-1.214 0.966,-0.559 1.937,-1.115 2.903,-1.674 1.412,-0.813 2.826,-1.628 4.176,-2.538 0.571,-0.382 1.146,-0.789 1.805,-0.98 0.277,-0.08 0.568,-0.121 0.832,-0.239 0.31,-0.141 0.562,-0.38 0.833,-0.586 1.022,-0.772 2.342,-1.063 3.402,-1.781 0.896,-0.607 1.623,-1.525 2.668,-1.815 0.503,-0.138 0.985,-0.13 1.443,-0.385 0.47,-0.264 0.992,-0.447 1.529,-0.525 0.281,-0.042 0.572,-0.057 0.84,-0.157 0.327,-0.123 0.593,-0.366 0.855,-0.598 1.127,-0.972 2.427,-1.751 3.82,-2.29 0.921,-0.354 1.888,-0.61 2.753,-1.084 0.846,-0.466 1.541,-1.136 2.371,-1.613 0.825,-0.475 1.741,-0.757 2.629,-1.083 1.178,-0.431 2.328,-0.941 3.429,-1.536 0.491,-0.269 0.971,-0.551 1.435,-0.859 0.349,-0.229 0.688,-0.472 1.039,-0.697 2.272,-1.459 4.948,-2.159 7.308,-3.463 0.689,-0.382 1.331,-0.838 1.998,-1.258 0.861,-0.543 1.762,-1.024 2.66,-1.504 0.604,-0.324 1.208,-0.711 1.835,-0.974 0.658,-0.278 1.35,-0.484 2.013,-0.746 1.351,-0.533 2.674,-1.158 3.854,-2.006 0.541,-0.389 1.048,-0.821 1.599,-1.194 0.66,-0.452 1.375,-0.813 2.089,-1.173 0.699,-0.356 1.396,-0.71 2.095,-1.063 1.355,-0.686 2.711,-1.371 4.065,-2.058 0.845,-0.427 1.69,-0.853 2.541,-1.275 0.134,-0.065 0.274,-0.136 0.365,-0.255 0.082,-0.103 0.116,-0.234 0.185,-0.342 0.208,-0.344 0.647,-0.448 1.031,-0.58 1.503,-0.519 2.573,-1.851 3.998,-2.565 0.955,-0.478 2.036,-0.657 3.105,-0.726 0.69,-0.044 1.398,-0.043 2.053,0.18 1.36,0.463 2.008,2.022 2.092,3.353 0.002,0.039 0.003,0.081 0.007,0.12 M 64.83,79.556 c 0.343,0 0.685,0.002 1.027,0.005 2.862,0.028 5.705,-0.226 8.572,-0.237 0.323,-0.001 2.481,-0.021 2.802,-0.008 0.334,0.013 0.74,-0.217 1.073,-0.226 0.602,-0.016 1.217,0.192 1.816,0.123 1.137,-0.131 2.16,-0.499 3.305,-0.497 0.277,0.001 0.56,0.046 0.827,-0.031 0.293,-0.085 0.532,-0.306 0.791,-0.474 0.877,-0.568 2.757,-0.621 3.245,-1.589 0.322,-0.638 0.373,-1.322 0.063,-1.971 -0.311,-0.65 -0.444,-1.492 -0.716,-2.161 -0.291,-0.715 -0.981,-1.387 -1.244,-2.114 -0.426,-1.178 -1.841,-2.087 -2.687,-2.966 -0.366,-0.38 -0.753,-0.774 -1.243,-0.923 -0.423,-0.129 -0.859,-0.053 -1.29,-0.06 -0.439,-0.008 -0.849,-0.148 -1.284,-0.2 -1.71,-0.205 -1.516,0.118 -3.23,-0.009 -0.822,-0.061 -2.747,0.21 -3.555,0.029 -2.07,-0.462 -4.22,-0.645 -6.324,-0.962 -1.585,-0.238 -3.136,-0.642 -4.709,-0.943 -1.537,-0.293 -3.147,-0.223 -4.655,-0.583 -1.492,-0.355 -2.886,-1.182 -3.964,-2.349 -0.611,-0.66 -1.391,-1.216 -1.558,-2.128 -0.111,-0.599 -0.045,-1.252 0.219,-1.795 0.465,-0.957 2.593,-1.734 3.469,-1.859 1.098,-0.155 3.176,-1.759 4.08,-2.311 0.712,-0.436 2.134,-0.722 2.719,-1.352 0.479,-0.515 1.856,-1.357 2.348,-1.857 0.816,-0.829 1.989,-0.557 2.877,-1.294 0.464,-0.386 1.069,-0.329 1.601,-0.596 0.693,-0.348 1.45,-0.507 2.15,-0.169 0.701,0.338 1.081,0.358 1.604,0.962 0.441,0.509 0.61,0.697 0.804,1.36 0.124,0.426 0.142,0.875 0.249,1.305 0.111,0.445 0.418,0.809 0.505,1.264 0.109,0.572 0.069,1.082 0.256,1.648 0.463,1.401 1.758,2.317 3.019,1.601 0.348,-0.197 1.068,-0.177 1.445,-0.275 1.032,-0.266 2.679,-0.383 3.734,-0.518 0.469,-0.06 0.943,0.021 1.412,-0.029 0.475,-0.05 0.811,-0.307 1.234,-0.506 0.977,-0.458 1.854,-1.037 2.711,-1.742 0.719,-0.59 1.217,-1.669 1.335,-2.635 0.145,-1.201 0.738,-2.179 0.838,-3.385 0.146,-1.772 0.357,-3.522 0.457,-5.299 0.063,-1.115 -0.066,-0.945 -0.336,-2.026 -0.193,-0.773 -0.604,-1.179 -1.04,-1.827 -0.482,-0.719 -1.168,-1.245 -1.841,-1.756 -0.564,-0.429 -1.128,-0.859 -1.692,-1.287 -1.708,-1.299 -3.301,-1.94 -5.497,-2.063 -2.498,-0.14 -4.977,0.439 -7.391,1.096 -3.148,0.858 -6.257,1.857 -9.319,2.982 -3.117,1.146 -6.184,2.42 -9.25,3.695 -1.212,0.504 -2.423,1.006 -3.635,1.51 -2.368,0.985 -4.736,1.969 -7.094,2.977 -1.179,0.504 -2.355,1.015 -3.527,1.533 -0.534,0.236 -1.1,0.443 -1.586,0.766 -0.424,0.281 -0.648,0.61 -1.221,0.644 -2.434,0.148 -2.897,2.365 -5.197,3.551 -0.61,0.315 -1.081,0.871 -1.489,1.451 -1.225,1.74 -2.565,3.753 -2.494,5.993 0.08,2.502 -0.237,5.088 0.867,7.402 1.146,2.402 2.506,4.859 4.759,6.4 0.562,0.384 1.167,0.701 1.773,1.015 2.209,1.143 4.448,2.248 6.804,3.046 3.477,1.177 7.145,1.666 10.785,2.147 1.705,0.226 3.414,0.452 5.133,0.493 2.116,0.051 4.24,0.011 6.36,0.014"
       id="path36" />
  </g>
</svg>
